# xmcd
#
# Track frame offsets: 
#        150
#        26705
#        44377
#        62285
#        84902
#        107982
#        126917
#        153047
#        181492
#
# Disc length: 2673 seconds
#
# Revision: 0
# Processed by: cddbd v1.4b42PL1 Copyright (c) Steve Scherf et al.
# Submitted via: ExactAudioCopy v0.90a11
#
DISCID=6a0a6f09
DTITLE=The Dennis McClung Blues Band - Prisoner of the Blues
DYEAR=1900
DGENRE=
TTITLE0=Everything But You
TTITLE1=Seven Ways
TTITLE2=The Red Rooster
TTITLE3=Dimples
TTITLE4=The Sky is Cryin'
TTITLE5=World of Misery
TTITLE6='Til the Day I Die
TTITLE7=Prisoner of the Blues
TTITLE8=Back in Your Arms Again
EXTD=
EXTT0=
EXTT1=
EXTT2=
EXTT3=
EXTT4=
EXTT5=
EXTT6=
EXTT7=
EXTT8=
PLAYORDER=
